#!OML:ASF H:\Terrain\Patient Classification 1\Terrain2\Thursday\justin.ASF
:FULLY-SPECIFIED
:DEGREES
4178
root 0.248156 16.9199 -21.5645 -363.87 -40.2851 -1.65905
lowerback 7.31283 1.55183 0.453382
upperback 3.80226 2.06575 2.75003
thorax -0.259342 0.993706 2.42422
lowerneck -8.48446 0.87408 -8.827
upperneck 41.2241 2.08671 1.63147
head 16.0287 -0.540261 2.5479
rclavicle -9.23355e-014 -7.95139e-015
rhumerus -39.1884 -16.486 -73.3854
rradius 27.3266
rwrist -10.1839
rhand -22.4664 11.4275
rfingers 7.12502
rthumb 3.95843 -18.5155
lclavicle -9.23355e-014 -7.95139e-015
lhumerus -36.8672 6.58138 83.8657
lradius 45.263
lwrist 7.74995
lhand -17.2325 22.3585
lfingers 7.12502
lthumb 9.011 52.146
rfemur -17.6695 -10.5926 20.93
rtibia 62.8676
rfoot -16.4594 -15.7841
rtoes 14.5939
lfemur -7.42201 -11.7233 -19.1196
ltibia 34.774
lfoot -2.50892 -34.6155
ltoes 38.21
4179
root 0.205473 16.9436 -21.5684 -363.671 -38.9578 -2.03751
lowerback 7.15801 1.51805 1.03854
upperback 3.98215 2.04649 2.61618
thorax 0.0379082 0.991862 1.96645
lowerneck -8.83155 0.653994 -8.73143
upperneck 41.234 1.65734 2.00815
head 16.1384 -0.646161 2.64216
rclavicle -8.64713e-015 4.77083e-015
rhumerus -39.2408 -17.3058 -73.5283
rradius 27.3462
rwrist -10.1825
rhand -21.7307 11.8334
rfingers 7.12502
rthumb 4.6688 -18.0952
lclavicle -8.64713e-015 4.77083e-015
lhumerus -36.2059 5.61511 83.9548
lradius 44.9066
lwrist 7.80506
lhand -17.2014 23.1471
lfingers 7.12502
lthumb 9.04103 52.9333
rfemur -17.592 -10.6367 21.1712
rtibia 62.5524
rfoot -15.9377 -16.3056
rtoes 7.61963
lfemur -7.46985 -11.8119 -18.6513
ltibia 34.7348
lfoot -1.45395 -35.2028
ltoes 39.7475
4180
root 0.166541 16.948 -21.5701 -363.462 -37.6119 -2.61281
lowerback 7.24915 1.22171 1.18402
upperback 3.96808 1.66502 3.03928
thorax -0.0240676 0.798129 2.34672
lowerneck -8.89358 0.674905 -9.16136
upperneck 41.3965 1.82963 1.98772
head 16.2323 -0.646851 2.74209
rclavicle 5.4467e-014 1.90833e-014
rhumerus -39.397 -16.0672 -73.6657
rradius 27.6399
rwrist -10.8642
rhand -21.7894 12.0979
rfingers 7.12502
rthumb 4.61212 -17.8319
lclavicle 5.4467e-014 1.90833e-014
lhumerus -36.2801 5.99418 84.3373
lradius 44.6959
lwrist 7.44698
lhand -17.5175 23.5607
lfingers 7.12502
lthumb 8.736 53.3599
rfemur -17.1418 -10.2643 21.4082
rtibia 61.9929
rfoot -16.4919 -15.5459
rtoes 5.40156
lfemur -7.47751 -11.8827 -18.0195
ltibia 34.7777
lfoot -0.85121 -35.7338
ltoes 40.3997
4181
root 0.122588 16.9617 -21.5758 -363.576 -36.3256 -2.75382
lowerback 7.42369 0.264785 0.136575
upperback 3.76254 0.341201 4.05757
thorax -0.297548 0.111845 4.09269
lowerneck -8.57773 1.46189 -10.6844
upperneck 41.4429 3.52681 1.5401
head 16.0621 -0.239132 3.05498
rclavicle -3.11098e-014 5.40694e-014
rhumerus -39.1951 -11.8591 -73.9311
rradius 27.8135
rwrist -11.54
rhand -21.7492 12.6649
rfingers 7.12502
rthumb 4.65093 -17.2641
lclavicle -3.11098e-014 5.40694e-014
lhumerus -37.3509 9.17469 84.6059
lradius 44.6522
lwrist 6.68354
lhand -17.4273 23.5017
lfingers 7.12502
lthumb 8.823 53.2972
rfemur -16.6662 -9.75352 21.2579
rtibia 61.4001
rfoot -17.1252 -14.131
rtoes 4.78321
lfemur -7.44052 -11.5835 -17.7278
ltibia 34.8383
lfoot -0.362562 -36.6719
ltoes 39.4235
4182
root 0.0737253 16.979 -21.5898 -363.518 -35.1171 -2.95697
lowerback 7.49471 1.22077 1.57105
upperback 3.98478 1.69696 2.84614
thorax -0.126459 0.822696 1.92267
lowerneck -9.10702 0.312486 -8.38782
upperneck 41.4248 1.0913 2.14741
head 16.35 -0.798274 2.572
rclavicle -1.10127e-013 1.35174e-014
rhumerus -40.2513 -16.6379 -74.1528
rradius 28.1085
rwrist -10.891
rhand -21.9117 12.5465
rfingers 7.12502
rthumb 4.49401 -17.3858
lclavicle -1.10127e-013 1.35174e-014
lhumerus -35.6051 4.38993 84.3719
lradius 43.8589
lwrist 6.60317
lhand -17.1111 23.5823
lfingers 7.12502
lthumb 9.12815 53.3647
rfemur -16.3799 -9.00247 21.2802
rtibia 60.7791
rfoot -17.7283 -12.758
rtoes 3.94688
lfemur -7.55223 -11.4186 -17.3632
ltibia 34.9024
lfoot -0.00949705 -37.3146
ltoes 38.4325
4183
root 0.0246653 16.9908 -21.6086 -363.372 -33.9458 -3.11338
lowerback 7.46126 1.2132 1.59909
upperback 3.97895 1.68942 2.74695
thorax -0.110201 0.821337 1.80572
lowerneck -9.33286 0.155369 -7.97254
upperneck 41.633 0.740845 2.25911
head 16.542 -0.86709 2.503
rclavicle 1.37658e-014 3.02153e-014
rhumerus -40.4677 -17.3285 -74.3428
rradius 28.2106
rwrist -10.4778
rhand -22.385 12.0966
rfingers 7.12502
rthumb 4.03702 -17.8449
lclavicle 1.37658e-014 3.02153e-014
lhumerus -35.3118 3.8504 84.2575
lradius 43.6218
lwrist 6.43803
lhand -17.8512 23.5115
lfingers 7.12502
lthumb 8.41393 53.3239
rfemur -16.2748 -8.15232 21.3308
rtibia 60.1834
rfoot -18.1166 -11.5683
rtoes 2.25097
lfemur -7.76851 -11.467 -17.0186
ltibia 34.8678
lfoot 1.80865 -37.3628
ltoes 40.8927
4184
root -0.0220711 17.0011 -21.6202 -363.346 -32.7596 -2.92014
lowerback 7.26313 1.17397 1.32697
upperback 3.97768 1.61672 2.69313
thorax -0.00700147 0.783085 1.91221
lowerneck -9.56187 -0.0417118 -8.09901
upperneck 41.8681 0.375388 2.60091
head 16.7546 -0.996844 2.63287
rclavicle -4.30369e-014 -1.47101e-014
rhumerus -40.5755 -17.3553 -74.6102
rradius 28.4693
rwrist -10.388
rhand -22.0591 12.7484
rfingers 7.12502
rthumb 4.35167 -17.1868
lclavicle -4.30369e-014 -1.47101e-014
lhumerus -35.2617 3.46521 84.383
lradius 43.8507
lwrist 6.57366
lhand -18.6267 23.5515
lfingers 7.12502
lthumb 7.6655 53.3926
rfemur -16.2048 -7.39006 20.9659
rtibia 59.5557
rfoot -18.6035 -9.95788
rtoes 1.00357
lfemur -8.05425 -11.4309 -17.004
ltibia 34.8234
lfoot 4.19433 -37.2043
ltoes 43.496
4185
root -0.0668588 17.0169 -21.6247 -363.428 -31.4337 -2.35808
lowerback 6.91582 1.28814 1.06361
upperback 3.97094 1.74687 2.33353
thorax 0.177371 0.850301 1.6875
lowerneck -9.49584 -0.369808 -7.96124
upperneck 41.7041 -0.32841 3.06381
head 16.6962 -1.18891 2.70392
rclavicle -2.44505e-014 -1.39149e-014
rhumerus -40.8762 -17.4681 -75.1233
rradius 28.9202
rwrist -10.9329
rhand -21.6996 13.0676
rfingers 7.12502
rthumb 4.69889 -16.8603
lclavicle -2.44505e-014 -1.39149e-014
lhumerus -35.0348 2.21086 84.4657
lradius 43.9978
lwrist 6.63222
lhand -18.4148 23.6933
lfingers 7.12502
lthumb 7.86998 53.5269
rfemur -16.1794 -6.82916 20.1827
rtibia 58.8454
rfoot -19.2065 -8.16624
rtoes -0.698499
lfemur -8.36592 -11.4788 -17.411
ltibia 34.7819
lfoot 3.77134 -37.2277
ltoes 41.8133
4186
root -0.108631 17.0354 -21.6353 -363.616 -29.988 -1.63568
lowerback 6.72023 1.07469 0.428073
upperback 3.98748 1.42538 2.13582
thorax 0.298711 0.68267 1.86574
lowerneck -9.32713 -0.355799 -8.12957
upperneck 41.2805 -0.318533 3.24517
head 16.4184 -1.16426 2.80597
rclavicle 1.54605e-013 9.93923e-015
rhumerus -40.7822 -16.7366 -75.7271
rradius 29.2701
rwrist -11.1471
rhand -22.576 11.8473
rfingers 7.12502
rthumb 3.85255 -18.0976
lclavicle 1.54605e-013 9.93923e-015
lhumerus -34.8171 2.23224 84.3819
lradius 43.8541
lwrist 6.19423
lhand -18.1646 23.6858
lfingers 7.12502
lthumb 8.11148 53.5102
rfemur -16.0902 -6.3904 19.2444
rtibia 58.0198
rfoot -19.7558 -6.52712
rtoes -3.0445
lfemur -8.6414 -11.581 -18.0143
ltibia 34.7638
lfoot 2.03094 -37.3455
ltoes 39.2674
4187
root -0.146481 17.0465 -21.6459 -363.681 -28.6984 -1.32583
lowerback 6.85315 -1.18671 -2.51876
upperback 3.37435 -1.73694 4.40176
thorax -0.134811 -0.958791 6.11277
lowerneck -8.37436 1.77009 -12.2573
upperneck 41.2004 4.12041 2.34977
head 15.777 -0.074105 3.76284
rclavicle 5.68524e-014 -2.22639e-014
rhumerus -39.782 -7.21434 -75.8905
rradius 29.4044
rwrist -11.9522
rhand -23.7653 10.5379
rfingers 7.12502
rthumb 2.70407 -19.4247
lclavicle 5.68524e-014 -2.22639e-014
lhumerus -37.6391 11.0304 84.6335
lradius 44.3684
lwrist 5.22692
lhand -18.261 23.516
lfingers 7.12502
lthumb 8.01848 53.3439
rfemur -15.7799 -5.85913 18.6877
rtibia 57.0325
rfoot -20.2427 -4.97147
rtoes -4.80063
lfemur -8.86376 -11.8051 -18.2684
ltibia 34.8394
lfoot 2.53724 -37.1826
ltoes 40.6084
